<svg version="1.1" id="Layer_1" xmlns="http://www.w3.org/2000/svg" xmlns:xlink="http://www.w3.org/1999/xlink" x="0px" y="0px"
	 width="100%" viewBox="0 0 470 178" enable-background="new 0 0 470 178" xml:space="preserve">
<path fill="#010101" opacity="1.000000" stroke="none" 
	d="
M292.000000,179.000000 
	C194.666702,179.000000 97.833405,179.000000 1.000078,179.000000 
	C1.000052,119.666725 1.000052,60.333447 1.000026,1.000126 
	C157.666550,1.000084 314.333099,1.000084 470.999756,1.000042 
	C470.999817,60.333202 470.999817,119.666405 470.999908,178.999802 
	C411.500000,179.000000 352.000000,179.000000 292.000000,179.000000 
M324.655121,59.347157 
	C324.634277,58.920074 324.613434,58.492989 324.847809,57.511692 
	C324.781860,57.319294 324.715942,57.126896 324.798767,56.295536 
	C324.815460,55.858692 324.832153,55.421844 325.248352,54.564587 
	C325.176056,53.695274 325.103760,52.825962 325.195190,51.270473 
	C326.730194,49.978386 328.265167,48.686302 330.038361,47.193714 
	C324.261108,47.193714 318.734497,47.193714 313.159180,47.193714 
	C315.330170,48.879601 317.295929,50.406113 319.275482,52.408916 
	C319.440460,52.706711 319.689331,52.891521 320.132935,53.606251 
	C320.249054,54.023502 320.365173,54.440754 320.283936,55.432247 
	C320.547760,55.951733 320.811584,56.471218 321.107483,57.816257 
	C321.188263,59.188393 321.269012,60.560532 321.152161,62.510979 
	C321.237213,62.696087 321.322296,62.881191 321.297668,63.988682 
	C321.301941,73.957855 321.306213,83.927032 321.041656,94.602791 
	C320.848633,96.080620 320.655640,97.558456 320.210480,99.735809 
	C317.467804,108.604530 311.337616,113.684746 302.298859,114.915039 
	C291.129700,116.435318 282.513580,107.858780 282.137207,94.768402 
	C281.792725,82.788864 282.089294,70.790825 281.740845,58.811481 
	C281.574188,53.081085 281.699432,48.072433 288.956268,47.291847 
	C279.284546,47.291847 269.612854,47.291847 259.941132,47.291847 
	C266.171112,48.126476 267.243713,52.097454 267.155914,57.386189 
	C266.970886,68.534012 267.193268,79.688049 267.073792,90.837662 
	C266.953308,102.087334 270.627014,111.451530 281.415039,116.011719 
	C292.988617,120.903984 304.831146,121.409134 315.384430,113.102768 
	C319.079346,110.194542 322.651337,106.629448 322.598694,100.742371 
	C322.942657,100.123215 323.286591,99.504059 323.816528,98.291046 
	C323.819366,97.877754 323.822235,97.464455 324.166016,96.276909 
	C324.268494,84.173164 324.370972,72.069412 324.655121,59.347157 
M369.540924,89.942207 
	C372.621765,90.487061 377.061615,89.929955 378.550232,91.765854 
	C385.312714,100.106033 391.243683,109.120430 397.368958,117.744606 
	C404.465271,117.744606 411.637512,117.744606 420.170013,117.744606 
	C406.210632,111.246185 401.142944,98.572571 392.812317,88.643227 
	C396.177277,86.909111 399.102875,85.671150 401.745544,83.988785 
	C409.565704,79.010323 413.383881,70.735504 411.565063,62.169441 
	C409.747009,53.606926 403.719513,49.067513 395.461243,48.107666 
	C387.572144,47.190716 379.564606,47.171738 371.604156,47.021648 
	C362.712708,46.854012 353.815643,46.983192 344.921021,46.983192 
	C351.836090,48.138718 352.271729,52.817963 352.183350,58.457912 
	C351.943268,73.780533 352.122467,89.109451 352.082306,104.435738 
	C352.074493,107.413017 352.643097,110.789841 351.440430,113.244919 
	C350.405731,115.357086 347.223602,116.417305 345.169067,117.820999 
	C354.591278,117.820999 364.213348,117.820999 373.835419,117.820999 
	C370.456512,116.301651 366.625732,115.798553 366.778809,110.744019 
	C366.960236,104.752167 366.749481,98.748764 366.906616,92.755547 
	C366.931549,91.805656 367.997437,90.883057 369.540924,89.942207 
M191.095200,105.293213 
	C192.173950,111.438309 189.208969,115.255058 183.606491,117.683846 
	C193.179550,118.031883 202.448990,117.691780 211.682144,118.124886 
	C221.458618,118.583466 231.487854,115.910484 241.375824,120.382698 
	C243.331238,112.405296 245.268234,104.503098 247.205231,96.600899 
	C246.753662,96.240097 246.302094,95.879288 245.850525,95.518486 
	C237.827484,113.051437 224.199890,118.894974 206.020111,115.425674 
	C206.020111,105.185661 206.020111,94.788452 206.020111,83.929451 
	C216.623306,84.501511 228.431854,81.009460 233.602631,94.975197 
	C233.602631,86.781105 233.602631,78.587006 233.602631,69.426605 
	C228.014420,80.908302 219.744141,84.221596 206.104233,81.215851 
	C206.104233,70.653931 206.104233,60.089066 206.104233,48.634556 
	C213.002243,49.098206 220.334015,47.870625 225.957748,50.416298 
	C232.583054,53.415352 237.728851,59.682858 243.517990,64.534706 
	C242.405777,59.131374 241.170807,53.131668 239.904266,46.978554 
	C230.176727,46.978554 220.869095,46.978550 211.561478,46.978550 
	C202.414810,46.978550 193.268143,46.978554 184.121475,46.978554 
	C191.094147,50.062595 191.094818,50.062595 191.095047,57.873180 
	C191.095535,73.361778 191.095200,88.850372 191.095200,105.293213 
M77.800003,86.124504 
	C81.130394,89.245308 84.460785,92.366112 87.318420,95.043900 
	C87.318420,87.814430 87.318420,79.429001 87.318420,71.043571 
	C82.253159,86.207703 69.378555,81.325371 58.823856,83.171921 
	C58.823856,71.457138 58.823856,60.395939 58.823856,48.333149 
	C66.341637,49.069683 74.252792,48.171978 80.558937,50.936050 
	C86.785774,53.665359 91.389694,60.097294 97.073227,65.237404 
	C95.738708,58.993984 94.471458,53.065319 93.202843,47.130241 
	C74.076317,47.130241 55.211277,47.130241 35.429436,47.130241 
	C43.559532,50.039547 43.560986,50.039547 43.561546,58.045525 
	C43.562618,73.370140 43.380535,88.697937 43.650192,104.017807 
	C43.759617,110.234398 43.454548,115.682877 36.228607,117.928246 
	C46.089905,117.928246 55.951202,117.928246 64.832596,117.928246 
	C63.044617,116.268089 59.158287,114.380989 58.980667,112.192856 
	C58.260979,103.326813 58.681747,94.368195 58.681747,84.550148 
	C65.176834,85.053261 71.085045,85.510910 77.800003,86.124504 
M122.519089,46.983307 
	C120.353844,46.981979 118.188591,46.980190 116.023346,46.979465 
	C114.077751,46.978817 112.132164,46.979332 110.186569,46.979332 
	C117.072708,49.745884 117.178085,49.878860 117.180687,56.968842 
	C117.185387,69.793427 117.300499,82.619507 117.139023,95.442055 
	C117.036850,103.555580 119.619804,112.599014 108.562843,118.016647 
	C124.187508,118.016647 138.000427,117.911537 151.810074,118.077271 
	C156.263657,118.130722 160.708694,118.896645 165.638641,119.384216 
	C167.328842,112.643120 169.241089,105.016510 171.296799,96.817711 
	C165.221832,102.572220 160.370331,108.349998 154.392990,112.510147 
	C147.916901,117.017410 139.975647,116.470314 132.097061,115.702744 
	C132.097061,94.681503 132.017548,74.057808 132.256790,53.437813 
	C132.274796,51.885258 134.344894,50.067211 135.871124,48.916428 
	C137.014862,48.054050 138.818161,48.066391 140.327789,47.689281 
	C140.289597,47.453957 140.251389,47.218632 140.213196,46.983307 
	C134.645721,46.983307 129.078262,46.983307 122.519089,46.983307 
z"/>
<path fill="#F7F6F5" opacity="1.000000" stroke="none" 
	d="
M369.061462,89.945023 
	C367.997437,90.883057 366.931549,91.805656 366.906616,92.755547 
	C366.749481,98.748764 366.960236,104.752167 366.778809,110.744019 
	C366.625732,115.798553 370.456512,116.301651 373.835419,117.820999 
	C364.213348,117.820999 354.591278,117.820999 345.169067,117.820999 
	C347.223602,116.417305 350.405731,115.357086 351.440430,113.244919 
	C352.643097,110.789841 352.074493,107.413017 352.082306,104.435738 
	C352.122467,89.109451 351.943268,73.780533 352.183350,58.457912 
	C352.271729,52.817963 351.836090,48.138718 344.921021,46.983192 
	C353.815643,46.983192 362.712708,46.854012 371.604156,47.021648 
	C379.564606,47.171738 387.572144,47.190716 395.461243,48.107666 
	C403.719513,49.067513 409.747009,53.606926 411.565063,62.169441 
	C413.383881,70.735504 409.565704,79.010323 401.745544,83.988785 
	C399.102875,85.671150 396.177277,86.909111 392.812317,88.643227 
	C401.142944,98.572571 406.210632,111.246185 420.170013,117.744606 
	C411.637512,117.744606 404.465271,117.744606 397.368958,117.744606 
	C391.243683,109.120430 385.312714,100.106033 378.550232,91.765854 
	C377.061615,89.929955 372.621765,90.487061 369.061462,89.945023 
M386.939789,87.163528 
	C392.270081,86.522873 395.704376,83.346535 396.125122,78.249382 
	C396.607086,72.411011 396.507568,66.393379 395.623383,60.612267 
	C394.819580,55.356571 390.935364,51.526211 385.726868,50.514481 
	C379.662933,49.336582 373.386871,49.250896 366.815765,48.656204 
	C366.815765,60.795284 366.738159,71.913109 366.943665,83.025688 
	C366.962830,84.063095 368.678040,85.822243 369.767761,85.959450 
	C375.165985,86.639145 380.618652,86.886475 386.939789,87.163528 
z"/>
<path fill="#F5F3F2" opacity="1.000000" stroke="none" 
	d="
M191.095200,104.816093 
	C191.095200,88.850372 191.095535,73.361778 191.095047,57.873180 
	C191.094818,50.062595 191.094147,50.062595 184.121475,46.978554 
	C193.268143,46.978554 202.414810,46.978550 211.561478,46.978550 
	C220.869095,46.978550 230.176727,46.978554 239.904266,46.978554 
	C241.170807,53.131668 242.405777,59.131374 243.517990,64.534706 
	C237.728851,59.682858 232.583054,53.415352 225.957748,50.416298 
	C220.334015,47.870625 213.002243,49.098206 206.104233,48.634556 
	C206.104233,60.089066 206.104233,70.653931 206.104233,81.215851 
	C219.744141,84.221596 228.014420,80.908302 233.602631,69.426605 
	C233.602631,78.587006 233.602631,86.781105 233.602631,94.975197 
	C228.431854,81.009460 216.623306,84.501511 206.020111,83.929451 
	C206.020111,94.788452 206.020111,105.185661 206.020111,115.425674 
	C224.199890,118.894974 237.827484,113.051437 245.850525,95.518486 
	C246.302094,95.879288 246.753662,96.240097 247.205231,96.600899 
	C245.268234,104.503098 243.331238,112.405296 241.375824,120.382698 
	C231.487854,115.910484 221.458618,118.583466 211.682144,118.124886 
	C202.448990,117.691780 193.179550,118.031883 183.606491,117.683846 
	C189.208969,115.255058 192.173950,111.438309 191.095200,104.816093 
z"/>
<path fill="#F4F2F1" opacity="1.000000" stroke="none" 
	d="
M77.396637,86.046532 
	C71.085045,85.510910 65.176834,85.053261 58.681747,84.550148 
	C58.681747,94.368195 58.260979,103.326813 58.980667,112.192856 
	C59.158287,114.380989 63.044617,116.268089 64.832596,117.928246 
	C55.951202,117.928246 46.089905,117.928246 36.228607,117.928246 
	C43.454548,115.682877 43.759617,110.234398 43.650192,104.017807 
	C43.380535,88.697937 43.562618,73.370140 43.561546,58.045525 
	C43.560986,50.039547 43.559532,50.039547 35.429436,47.130241 
	C55.211277,47.130241 74.076317,47.130241 93.202843,47.130241 
	C94.471458,53.065319 95.738708,58.993984 97.073227,65.237404 
	C91.389694,60.097294 86.785774,53.665359 80.558937,50.936050 
	C74.252792,48.171978 66.341637,49.069683 58.823856,48.333149 
	C58.823856,60.395939 58.823856,71.457138 58.823856,83.171921 
	C69.378555,81.325371 82.253159,86.207703 87.318420,71.043571 
	C87.318420,79.429001 87.318420,87.814430 87.318420,95.043900 
	C84.460785,92.366112 81.130394,89.245308 77.396637,86.046532 
z"/>
<path fill="#F7F6F5" opacity="1.000000" stroke="none" 
	d="
M123.014938,46.983307 
	C129.078262,46.983307 134.645721,46.983307 140.213196,46.983307 
	C140.251389,47.218632 140.289597,47.453957 140.327789,47.689281 
	C138.818161,48.066391 137.014862,48.054050 135.871124,48.916428 
	C134.344894,50.067211 132.274796,51.885258 132.256790,53.437813 
	C132.017548,74.057808 132.097061,94.681503 132.097061,115.702744 
	C139.975647,116.470314 147.916901,117.017410 154.392990,112.510147 
	C160.370331,108.349998 165.221832,102.572220 171.296799,96.817711 
	C169.241089,105.016510 167.328842,112.643120 165.638641,119.384216 
	C160.708694,118.896645 156.263657,118.130722 151.810074,118.077271 
	C138.000427,117.911537 124.187508,118.016647 108.562843,118.016647 
	C119.619804,112.599014 117.036850,103.555580 117.139023,95.442055 
	C117.300499,82.619507 117.185387,69.793427 117.180687,56.968842 
	C117.178085,49.878860 117.072708,49.745884 110.186569,46.979332 
	C112.132164,46.979332 114.077751,46.978817 116.023346,46.979465 
	C118.188591,46.980190 120.353844,46.981979 123.014938,46.983307 
z"/>
<path fill="#F6F5F5" opacity="1.000000" stroke="none" 
	d="
M322.036743,101.062103 
	C322.651337,106.629448 319.079346,110.194542 315.384430,113.102768 
	C304.831146,121.409134 292.988617,120.903984 281.415039,116.011719 
	C270.627014,111.451530 266.953308,102.087334 267.073792,90.837662 
	C267.193268,79.688049 266.970886,68.534012 267.155914,57.386189 
	C267.243713,52.097454 266.171112,48.126476 259.941132,47.291847 
	C269.612854,47.291847 279.284546,47.291847 288.956268,47.291847 
	C281.699432,48.072433 281.574188,53.081085 281.740845,58.811481 
	C282.089294,70.790825 281.792725,82.788864 282.137207,94.768402 
	C282.513580,107.858780 291.129700,116.435318 302.298859,114.915039 
	C311.337616,113.684746 317.467804,108.604530 320.585999,99.198044 
	C321.916046,98.123909 322.870544,97.587532 323.825073,97.051163 
	C323.822235,97.464455 323.819366,97.877754 323.392517,98.594322 
	C322.657898,99.619102 322.347321,100.340607 322.036743,101.062103 
z"/>
<path fill="#FDFDFD" opacity="1.000000" stroke="none" 
	d="
M321.349792,61.932663 
	C321.269012,60.560532 321.188263,59.188393 321.269775,57.243622 
	C321.115112,56.066662 320.798218,55.462334 320.481323,54.858009 
	C320.365173,54.440754 320.249054,54.023502 320.090088,53.036316 
	C319.896484,52.124855 319.634644,51.946938 319.261688,51.932625 
	C317.295929,50.406113 315.330170,48.879601 313.159180,47.193714 
	C318.734497,47.193714 324.261108,47.193714 330.038361,47.193714 
	C328.265167,48.686302 326.730194,49.978386 324.993774,51.870216 
	C324.811157,53.308304 324.829987,54.146652 324.848816,54.984997 
	C324.832153,55.421844 324.815460,55.858692 324.528809,56.692665 
	C324.202576,57.218300 324.063934,57.393307 324.105377,57.466591 
	C324.230225,57.687588 324.425049,57.869038 324.592590,58.065903 
	C324.613434,58.492989 324.634277,58.920074 324.316162,59.992645 
	C323.923157,70.565498 323.887329,80.493019 323.797089,90.420052 
	C323.782013,92.078918 324.487213,94.424889 321.310486,93.896210 
	C321.306213,83.927032 321.301941,73.957855 321.543976,63.437317 
	C321.643463,62.568192 321.496613,62.250427 321.349792,61.932663 
z"/>
<path fill="#C1B8B5" opacity="1.000000" stroke="none" 
	d="
M321.176086,94.249496 
	C324.487213,94.424889 323.782013,92.078918 323.797089,90.420052 
	C323.887329,80.493019 323.923157,70.565498 324.225342,60.301903 
	C324.370972,72.069412 324.268494,84.173164 323.995544,96.664032 
	C322.870544,97.587532 321.916046,98.123909 320.712097,98.848282 
	C320.655640,97.558456 320.848633,96.080620 321.176086,94.249496 
z"/>
<path fill="#C1B8B5" opacity="1.000000" stroke="none" 
	d="
M325.048584,54.774792 
	C324.829987,54.146652 324.811157,53.308304 324.911926,52.213303 
	C325.103760,52.825962 325.176056,53.695274 325.048584,54.774792 
z"/>
<path fill="#C1B8B5" opacity="1.000000" stroke="none" 
	d="
M320.382629,55.145126 
	C320.798218,55.462334 321.115112,56.066662 321.253723,56.830849 
	C320.811584,56.471218 320.547760,55.951733 320.382629,55.145126 
z"/>
<path fill="#C1B8B5" opacity="1.000000" stroke="none" 
	d="
M322.317719,100.902237 
	C322.347321,100.340607 322.657898,99.619102 323.299500,98.891251 
	C323.286591,99.504059 322.942657,100.123215 322.317719,100.902237 
z"/>
<path fill="#C1B8B5" opacity="1.000000" stroke="none" 
	d="
M319.268585,52.170773 
	C319.634644,51.946938 319.896484,52.124855 320.034668,52.714867 
	C319.689331,52.891521 319.440460,52.706711 319.268585,52.170773 
z"/>
<path fill="#C1B8B5" opacity="1.000000" stroke="none" 
	d="
M324.720215,57.788795 
	C324.425049,57.869038 324.230225,57.687588 324.105377,57.466591 
	C324.063934,57.393307 324.202576,57.218300 324.454437,57.012146 
	C324.715942,57.126896 324.781860,57.319294 324.720215,57.788795 
z"/>
<path fill="#C1B8B5" opacity="1.000000" stroke="none" 
	d="
M321.250977,62.221821 
	C321.496613,62.250427 321.643463,62.568192 321.598816,62.976128 
	C321.322296,62.881191 321.237213,62.696087 321.250977,62.221821 
z"/>
<path fill="#030202" opacity="1.000000" stroke="none" 
	d="
M386.495972,87.224869 
	C380.618652,86.886475 375.165985,86.639145 369.767761,85.959450 
	C368.678040,85.822243 366.962830,84.063095 366.943665,83.025688 
	C366.738159,71.913109 366.815765,60.795284 366.815765,48.656204 
	C373.386871,49.250896 379.662933,49.336582 385.726868,50.514481 
	C390.935364,51.526211 394.819580,55.356571 395.623383,60.612267 
	C396.507568,66.393379 396.607086,72.411011 396.125122,78.249382 
	C395.704376,83.346535 392.270081,86.522873 386.495972,87.224869 
z"/>
</svg>